<?xml version="1.0" standalone="no"?>
<!DOCTYPE svg PUBLIC "-//W3C//DTD SVG 20010904//EN"
 "http://www.w3.org/TR/2001/REC-SVG-20010904/DTD/svg10.dtd">
<svg version="1.0" xmlns="http://www.w3.org/2000/svg"
 width="1920.000000pt" height="1920.000000pt" viewBox="0 0 1920.000000 1920.000000"
 preserveAspectRatio="xMidYMid meet">
<metadata>
Created by potrace 1.11, written by Peter Selinger 2001-2013
</metadata>
<g transform="translate(0.000000,1920.000000) scale(0.100000,-0.100000)"
fill="#000000" stroke="none">
<path d="M9247 14704 c-1 -1 -94 -5 -207 -8 -113 -4 -227 -8 -255 -11 -27 -2
-86 -7 -130 -10 -175 -13 -203 -15 -275 -25 -41 -5 -100 -12 -130 -15 -30 -3
-62 -8 -70 -10 -8 -2 -40 -7 -70 -11 -97 -12 -97 -12 -275 -46 -60 -11 -117
-22 -125 -23 -58 -11 -373 -91 -455 -116 -317 -96 -649 -234 -875 -364 -36
-21 -74 -43 -85 -49 -56 -32 -221 -147 -301 -211 -148 -119 -387 -365 -520
-535 -276 -354 -506 -868 -625 -1391 -15 -70 -31 -148 -34 -175 -4 -27 -8 -56
-10 -64 -4 -14 -11 -60 -21 -145 -9 -83 -18 -254 -17 -375 0 -152 11 -462 17
-500 3 -14 7 -61 11 -105 3 -44 7 -91 9 -105 3 -14 7 -50 10 -80 4 -30 11 -82
16 -115 5 -33 12 -77 16 -99 3 -21 8 -48 10 -60 2 -11 7 -37 10 -56 3 -19 15
-71 25 -115 10 -45 20 -92 22 -105 3 -14 11 -45 18 -70 7 -25 13 -49 15 -55 8
-39 32 -117 73 -238 138 -408 313 -727 546 -997 66 -77 276 -281 365 -355 52
-44 97 -83 100 -86 35 -39 352 -258 470 -323 71 -40 365 -186 374 -186 3 0 29
-11 58 -24 76 -35 264 -107 313 -120 6 -2 17 -6 25 -9 8 -3 35 -11 60 -18 25
-7 50 -14 55 -15 39 -11 174 -46 194 -50 12 -3 53 -12 90 -21 36 -8 75 -17 86
-19 11 -1 54 -10 95 -18 41 -8 95 -17 120 -21 42 -6 133 -20 190 -29 29 -5
113 -14 185 -21 28 -3 66 -7 85 -10 82 -12 357 -32 555 -40 466 -20 1042 -20
1350 -1 74 5 230 18 245 21 8 2 44 6 80 10 107 11 130 14 240 30 123 18 158
23 185 28 25 5 79 15 125 22 56 9 257 54 365 81 55 14 107 27 116 29 20 4 218
64 239 72 8 3 20 7 25 8 156 38 659 260 843 374 46 28 87 51 92 51 5 0 10 3
12 8 2 4 30 24 63 46 107 69 221 155 335 251 19 17 89 84 155 150 391 390 718
1002 864 1615 27 113 70 349 77 419 3 31 7 67 9 81 27 153 27 867 0 1010 -2 8
-6 44 -9 80 -4 36 -11 88 -16 115 -5 28 -11 64 -14 80 -21 147 -82 392 -141
571 -40 119 -132 359 -154 402 -5 9 -36 73 -69 142 -62 132 -181 342 -259 463
-66 102 -202 285 -218 294 -7 5 -54 46 -105 93 -153 141 -260 231 -365 312
-76 57 -229 160 -275 183 -19 10 -37 21 -40 24 -3 4 -68 39 -145 78 -290 145
-589 247 -980 332 -49 11 -103 22 -120 25 -79 13 -283 47 -305 51 -32 5 -359
43 -430 49 -85 9 -277 22 -450 31 -136 7 -1057 24 -1063 19z m658 -508 c88 -4
174 -8 190 -10 17 -3 71 -7 120 -11 135 -11 143 -12 232 -24 46 -7 95 -14 110
-16 83 -11 310 -53 383 -70 260 -63 579 -167 690 -225 19 -10 91 -45 160 -79
177 -86 353 -193 459 -278 100 -82 120 -99 166 -142 89 -84 176 -183 246 -277
38 -51 69 -96 69 -99 0 -4 8 -19 18 -33 29 -43 85 -179 80 -194 -3 -7 -34 -30
-69 -51 -35 -21 -84 -52 -109 -67 -49 -31 -56 -35 -177 -103 -163 -92 -273
-142 -543 -247 -655 -256 -1097 -473 -1393 -687 -149 -107 -348 -305 -502
-498 -22 -27 -43 -52 -46 -55 -21 -17 -184 -256 -247 -362 -41 -70 -88 -139
-103 -154 l-29 -28 -30 29 c-27 26 -68 86 -175 255 -150 239 -299 425 -494
620 -133 133 -243 217 -420 323 -200 119 -347 195 -638 328 -109 50 -393 169
-404 169 -5 0 -17 4 -27 10 -9 5 -60 26 -112 46 -398 150 -539 218 -805 389
-97 63 -109 76 -107 120 3 65 126 282 236 415 68 81 258 260 347 327 218 164
510 317 788 415 211 74 509 152 661 174 19 3 58 9 85 14 53 10 111 19 160 25
17 2 53 7 80 11 28 4 61 8 75 9 14 1 59 5 100 9 119 12 164 15 350 22 96 3
176 7 177 8 4 3 306 -2 448 -8z m3361 -2743 c13 -69 27 -143 30 -166 3 -23 7
-52 9 -65 7 -43 18 -276 18 -367 0 -151 -13 -354 -29 -465 -8 -58 -17 -118
-19 -135 -4 -32 -19 -98 -54 -255 -31 -134 -118 -431 -151 -515 -4 -11 -23
-58 -41 -105 -41 -103 -140 -306 -186 -378 -18 -29 -33 -55 -33 -57 0 -9 -141
-202 -187 -257 -303 -358 -692 -616 -1188 -787 -135 -47 -452 -132 -540 -145
-22 -3 -62 -10 -90 -16 -54 -10 -64 -11 -235 -34 -358 -48 -920 -56 -1455 -21
-33 2 -105 6 -160 10 -55 3 -118 7 -140 10 -22 2 -71 7 -110 10 -138 11 -279
27 -365 40 -14 2 -45 7 -70 10 -382 54 -774 185 -1030 345 -348 217 -630 554
-866 1033 -47 95 -164 360 -164 371 0 3 -9 25 -19 49 -53 114 -236 671 -246
747 -3 25 -8 52 -10 60 -2 8 -7 38 -10 65 -6 45 -9 67 -20 145 -30 208 -23
541 20 915 5 44 23 105 30 105 2 0 74 -36 161 -79 176 -88 324 -148 519 -211
72 -23 155 -50 185 -60 54 -18 261 -79 290 -85 216 -49 673 -187 850 -257 192
-75 464 -241 655 -399 138 -114 396 -373 491 -494 160 -202 272 -404 368 -662
68 -183 103 -226 171 -209 41 10 105 125 174 312 47 127 64 167 126 282 45 83
199 321 233 358 9 10 29 35 43 54 46 60 173 195 269 284 214 198 575 409 930
542 133 50 317 116 390 139 41 13 192 60 335 105 143 45 289 91 325 102 242
76 635 224 710 268 55 32 50 40 86 -137z"/>
<path d="M5933 5902 l-483 -2 0 -705 0 -705 215 0 215 0 0 514 0 515 217 -2
217 -2 0 -512 0 -513 208 0 208 0 0 514 0 515 165 0 c187 1 222 -7 255 -61 19
-32 20 -49 20 -500 l0 -468 210 0 210 0 0 113 0 112 29 -50 c35 -61 107 -130
164 -156 40 -18 77 -19 804 -19 l763 0 282 231 c156 127 301 245 323 264 22
18 157 128 300 244 143 117 269 220 280 229 71 59 163 132 166 132 2 0 4 -248
4 -550 l-1 -550 566 0 c608 1 641 3 742 53 100 50 172 135 213 252 5 16 10 9
25 -35 36 -113 102 -196 190 -242 l45 -23 632 -3 633 -2 -1 547 c-1 491 -3
554 -19 611 -39 139 -142 221 -310 246 -33 5 -297 7 -836 6 l-241 0 0 -170 c0
-148 2 -170 16 -171 9 0 205 -1 436 -2 334 -2 425 -5 445 -16 59 -32 78 -62
86 -138 l5 -42 -423 -3 -423 -3 -55 -31 c-31 -18 -72 -53 -95 -82 -22 -28 -43
-51 -46 -51 -3 -1 -7 23 -7 52 -2 70 -13 201 -18 208 -2 3 -6 21 -9 40 -23
135 -97 260 -193 326 -119 81 -141 83 -937 83 l-680 0 -120 -95 c-66 -53 -127
-101 -135 -108 -8 -7 -58 -46 -110 -87 -52 -41 -104 -83 -115 -92 -11 -9 -126
-100 -255 -203 -129 -102 -251 -199 -270 -214 -19 -15 -98 -78 -175 -140 -77
-61 -148 -118 -158 -126 -9 -8 -21 -15 -25 -15 -4 0 -7 170 -6 377 0 385 -3
431 -40 515 -18 42 -84 111 -126 133 -96 50 -79 48 -677 52 l-563 4 0 -170 c0
-94 3 -171 8 -172 4 0 201 -1 437 -2 413 -2 431 -3 465 -22 43 -26 67 -66 75
-127 l7 -48 -414 0 -413 0 -60 -29 c-63 -29 -131 -95 -166 -161 l-18 -35 -1
200 c-1 110 -3 218 -5 240 -11 121 -92 231 -211 287 l-69 33 -445 5 c-245 3
-662 4 -927 2z m5768 -384 c98 -47 151 -164 150 -330 0 -147 -43 -252 -123
-305 l-41 -28 -271 -3 -271 -3 1 328 c1 180 2 335 3 343 2 24 501 22 552 -2z
m-3051 -546 l0 -108 -305 0 -305 1 -25 26 c-49 48 -38 150 18 177 14 7 132 11
320 11 l297 1 0 -108z m4672 51 c1 -32 2 -81 0 -109 l-3 -51 -303 1 c-333 1
-326 0 -353 64 -23 56 1 122 52 143 11 4 151 8 312 8 l291 1 4 -57z"/>
<path d="M9229 5898 c-1 -2 -2 -87 -3 -191 l-1 -187 118 0 c161 -1 306 -1 375
0 52 0 61 4 98 38 22 20 71 64 109 97 93 81 153 134 195 172 19 17 46 40 60
52 l25 20 -487 1 c-269 0 -488 -1 -489 -2z"/>
<path d="M9885 4743 c-77 -68 -156 -139 -175 -156 -19 -18 -52 -47 -73 -64
l-39 -33 490 0 489 0 1 190 0 190 -277 -1 -276 0 -140 -126z"/>
</g>
</svg>
